<?xml version="1.0" standalone="no"?>
<!DOCTYPE svg PUBLIC "-//W3C//DTD SVG 20010904//EN"
 "http://www.w3.org/TR/2001/REC-SVG-20010904/DTD/svg10.dtd">
<svg version="1.0" xmlns="http://www.w3.org/2000/svg"
 width="260.000000pt" height="260.000000pt" viewBox="0 0 260.000000 260.000000"
 preserveAspectRatio="xMidYMid meet">
<metadata>
Created by potrace 1.11, written by Peter Selinger 2001-2013
</metadata>
<g transform="translate(0.000000,260.000000) scale(0.100000,-0.100000)"
fill="#000000" stroke="none">
<path d="M1651 2483 c-1 -7 -15 -10 -36 -9 -19 2 -36 -2 -39 -8 -2 -6 -5 -5
-5 3 -1 11 -5 10 -17 -5 -15 -19 -16 -19 -9 0 6 20 6 20 -16 0 -15 -12 -20
-14 -15 -4 5 9 2 8 -7 -2 -8 -10 -17 -15 -20 -12 -3 3 -12 2 -19 -2 -13 -9
-20 -11 -52 -17 -11 -2 -22 -9 -24 -15 -2 -7 -9 -9 -15 -5 -17 10 -57 10 -57
0 0 -5 -8 -3 -17 4 -11 10 -14 10 -9 2 4 -7 2 -13 -4 -13 -6 0 -10 -7 -8 -16
2 -10 -4 -19 -12 -21 -13 -4 -13 -3 0 6 8 6 10 11 4 11 -21 0 -24 -14 -7 -33
10 -10 18 -34 18 -53 1 -31 -6 -39 -29 -35 -4 1 -14 -4 -22 -10 -12 -9 -13 -9
-8 4 6 16 -19 18 -33 2 -5 -4 -1 -5 7 0 9 5 12 4 7 -1 -5 -5 -16 -9 -25 -9
-11 0 -16 -7 -14 -19 2 -10 0 -16 -5 -13 -4 3 -9 -10 -10 -29 -1 -19 2 -34 7
-34 9 0 25 -39 22 -52 -1 -4 5 -5 13 -2 10 4 15 0 15 -12 0 -15 2 -16 9 -5 6
9 10 4 13 -18 3 -18 0 -35 -5 -38 -6 -4 -7 -1 -2 7 5 9 4 11 -3 6 -7 -4 -12
-14 -12 -22 0 -8 4 -13 8 -10 4 2 8 -6 8 -19 0 -24 -11 -25 -11 -2 -1 7 -6 11
-13 9 -7 -1 -12 3 -12 9 0 5 -4 7 -10 4 -5 -3 -10 -1 -10 5 0 6 -4 8 -10 5 -5
-3 -10 -1 -10 5 0 6 -5 8 -11 5 -6 -4 -9 0 -7 10 2 11 -4 19 -14 20 -14 3 -16
0 -8 -15 5 -9 6 -20 3 -24 -3 -3 -1 -6 5 -6 7 0 12 -7 12 -16 0 -8 4 -13 9
-10 5 3 11 -1 15 -9 3 -9 12 -12 23 -8 15 5 15 3 -2 -11 -11 -10 -14 -15 -7
-11 7 4 12 0 12 -10 0 -10 -5 -13 -12 -9 -8 5 -9 2 -5 -10 4 -10 3 -15 -3 -11
-6 3 -10 1 -10 -5 0 -6 -4 -8 -10 -5 -5 3 -10 1 -10 -6 0 -7 -3 -9 -7 -6 -3 4
-13 1 -21 -6 -13 -10 -14 -9 -7 2 6 10 4 12 -6 5 -18 -11 -79 -12 -79 -1 0 5
-4 6 -9 2 -5 -3 -13 0 -17 7 -10 16 -27 -25 -37 -92 -4 -22 -17 -40 -17 -22 0
7 -6 11 -12 9 -7 -1 -12 4 -11 11 2 6 -1 12 -6 12 -5 0 -12 -6 -14 -12 -3 -8
-6 -7 -6 4 -1 9 -6 20 -13 24 -7 5 -8 3 -3 -5 4 -7 -5 -5 -21 5 -15 11 -25 14
-21 7 4 -7 0 -16 -10 -22 -10 -6 -13 -11 -8 -11 6 0 16 5 23 12 7 7 12 9 12 6
0 -4 -14 -17 -32 -29 -17 -13 -28 -18 -24 -11 5 8 2 10 -8 6 -9 -3 -13 -10
-10 -16 9 -15 -29 -45 -54 -43 -13 1 -25 -2 -27 -6 -3 -4 -15 -5 -27 -1 -12 3
-19 1 -15 -4 3 -6 -3 -11 -14 -11 -11 -1 -17 2 -15 6 3 4 -8 6 -25 5 -16 -1
-29 3 -29 9 0 9 -2 9 -8 0 -9 -14 -54 -13 -64 2 -6 7 -11 6 -16 -3 -5 -7 -13
-12 -18 -11 -22 4 -35 -2 -28 -13 5 -7 3 -8 -7 -2 -21 13 -39 14 -39 1 0 -7
-5 -6 -10 3 -9 13 -12 13 -23 -1 -6 -9 -18 -14 -24 -12 -7 3 -13 -1 -13 -7 0
-9 -4 -9 -16 0 -12 11 -15 11 -12 0 2 -8 -6 -16 -17 -18 -11 -2 -24 -11 -28
-18 -5 -8 -12 -12 -18 -9 -5 3 -6 -1 -3 -9 3 -9 2 -16 -2 -16 -5 0 -9 -13 -9
-30 -1 -16 3 -30 7 -30 4 0 8 -5 8 -11 0 -5 -4 -8 -8 -5 -4 3 -7 -8 -6 -25 1
-16 -2 -32 -7 -35 -5 -3 -7 -10 -4 -15 4 -5 -2 -9 -12 -9 -14 0 -15 -2 -5 -9
15 -9 15 -17 1 -43 -6 -10 -5 -19 1 -23 5 -3 10 -16 10 -28 0 -12 1 -52 2 -89
2 -68 2 -68 31 -68 15 0 26 4 23 8 -3 4 8 7 25 6 16 -1 29 2 29 6 0 9 41 7 58
-4 7 -4 12 -14 12 -22 0 -8 4 -12 10 -9 5 3 10 -1 10 -9 0 -9 11 -23 25 -32
14 -9 22 -20 20 -25 -3 -5 6 -11 20 -15 13 -3 22 -10 19 -15 -3 -5 0 -9 6 -9
6 0 8 -4 5 -10 -3 -5 0 -10 7 -10 8 0 9 -3 3 -8 -5 -4 -10 -18 -9 -32 1 -38
-6 -52 -20 -41 -6 6 -18 6 -25 2 -11 -7 -11 -10 1 -17 18 -11 52 -77 35 -68
-7 3 -4 -1 6 -9 10 -9 15 -21 11 -31 -4 -11 -2 -16 7 -14 8 2 13 -3 11 -12 -2
-8 0 -12 3 -8 4 4 22 0 39 -9 17 -10 35 -16 39 -15 5 1 6 -2 2 -8 -3 -5 -2
-10 3 -10 6 0 10 -6 9 -12 -1 -36 4 -49 16 -42 9 5 9 4 0 -6 -8 -9 -8 -20 3
-45 7 -18 10 -35 7 -39 -4 -3 -1 -6 6 -6 8 0 11 -6 7 -16 -3 -8 -2 -13 3 -10
9 6 24 -30 22 -51 -1 -7 5 -13 13 -13 9 0 13 -9 12 -25 -2 -13 0 -22 4 -20 4
3 14 -3 21 -12 12 -14 12 -16 -1 -9 -8 4 -4 -1 9 -12 13 -11 21 -24 17 -31 -4
-6 -1 -11 8 -11 9 0 16 -5 16 -11 0 -12 73 -88 101 -105 8 -5 20 -20 27 -33 8
-12 9 -20 3 -16 -16 9 -13 -8 5 -31 8 -10 12 -12 8 -4 -6 13 -5 13 7 1 11 -10
11 -15 1 -18 -6 -3 -10 -8 -7 -13 3 -5 -4 -11 -14 -15 -12 -3 -18 -12 -15 -20
3 -7 -4 -18 -15 -25 -12 -6 -21 -8 -21 -5 0 4 -7 -1 -16 -9 -8 -9 -20 -14 -25
-10 -5 3 -12 -2 -15 -11 -6 -13 -8 -14 -15 -3 -7 10 -9 11 -9 0 0 -7 -4 -10
-10 -7 -5 3 -10 2 -10 -4 0 -14 14 -21 47 -23 15 -1 34 -6 42 -12 11 -8 13 -8
8 0 -9 16 18 25 32 11 8 -8 11 -8 11 1 0 10 5 10 20 2 16 -9 20 -8 21 7 0 10
3 13 5 7 6 -13 54 5 54 20 0 5 6 4 13 -2 6 -5 23 -12 37 -14 14 -1 28 -7 33
-13 4 -7 10 -7 15 0 4 6 14 10 22 10 20 -1 36 23 38 58 1 19 -2 26 -10 21 -7
-5 -9 -2 -6 7 5 14 -16 42 -25 33 -2 -3 -7 2 -10 11 -4 8 -3 15 2 15 4 0 8 7
8 15 0 8 -3 15 -7 15 -3 0 -6 18 -6 40 1 28 5 39 13 35 7 -2 12 -1 12 3 -3 18
2 35 8 29 3 -4 12 2 20 12 8 12 22 18 33 16 13 -3 18 0 14 7 -5 7 0 9 14 6 12
-4 22 -3 22 2 0 10 82 0 98 -12 8 -7 12 -7 12 0 0 6 16 -5 35 -24 20 -19 41
-31 47 -28 7 5 9 2 5 -9 -3 -9 0 -23 8 -31 8 -8 15 -24 15 -35 0 -11 5 -23 10
-26 7 -4 6 -14 -1 -28 -9 -16 -9 -22 0 -25 9 -3 9 -8 -1 -20 -10 -12 -10 -14
0 -8 6 4 12 2 12 -3 0 -6 7 -11 16 -11 25 0 45 -25 31 -39 -6 -6 -8 -11 -4
-11 4 0 1 -12 -6 -27 -24 -46 -14 -53 79 -53 83 0 85 1 95 27 7 19 7 29 0 31
-6 2 -9 8 -5 13 3 5 0 9 -6 9 -7 0 -9 7 -6 17 4 10 4 14 0 10 -11 -11 -45 45
-34 58 4 5 10 15 12 20 1 6 8 8 13 6 13 -4 24 -7 63 -16 17 -4 32 -10 32 -14
0 -4 12 -8 27 -9 15 -1 29 -5 32 -10 6 -6 19 -11 46 -16 6 -1 16 -5 23 -9 6
-5 12 -5 12 -1 0 3 8 0 17 -7 14 -12 16 -12 8 0 -6 11 -5 12 6 5 8 -5 30 -9
49 -9 19 -1 40 -4 47 -8 6 -4 14 -4 16 0 3 5 46 8 95 8 50 0 88 3 85 8 -7 12
12 8 26 -6 11 -10 12 -9 7 1 -6 9 -1 11 18 8 14 -2 27 1 30 7 3 9 5 9 5 0 1
-7 13 -9 32 -6 23 3 29 1 24 -8 -6 -9 -4 -10 6 -3 8 5 30 9 49 9 19 0 41 4 49
9 9 6 12 5 8 -2 -5 -6 0 -8 13 -5 11 3 23 10 27 16 4 6 1 7 -6 2 -10 -5 -9 -2
0 13 7 12 18 18 24 15 5 -3 5 0 -2 7 -8 9 -9 19 -3 31 7 11 7 20 0 24 -5 3
-10 29 -10 56 0 28 -4 48 -9 45 -4 -3 -7 6 -5 19 1 15 -3 25 -10 25 -16 0 -66
45 -66 59 0 6 7 7 17 4 11 -4 14 -3 9 5 -4 7 -3 12 3 12 6 0 8 7 5 15 -4 10 0
15 10 15 14 0 15 4 6 20 -6 11 -7 20 -3 19 4 -1 15 -1 23 0 13 1 13 2 0 11
-10 6 -11 10 -3 10 15 0 6 81 -9 91 -6 4 -8 11 -4 17 3 6 1 14 -5 18 -8 5 -9
3 -4 -6 5 -9 4 -11 -3 -6 -7 4 -12 14 -12 22 0 8 -5 14 -10 14 -6 0 -10 17 -8
37 1 22 -3 38 -10 41 -7 2 -10 8 -6 13 3 5 -4 9 -15 9 -12 0 -21 5 -21 11 0 6
-7 9 -15 6 -8 -4 -17 -1 -21 5 -4 7 -9 7 -14 -1 -3 -7 -14 -9 -23 -5 -9 3 -14
10 -11 15 3 5 2 9 -3 8 -20 -4 -33 2 -43 20 -7 15 -6 23 6 35 8 9 11 16 5 16
-5 0 -9 9 -8 19 0 11 5 17 11 14 5 -3 7 5 4 21 -3 15 -1 26 6 26 6 0 4 5 -4
10 -8 5 -10 10 -5 10 6 0 3 5 -5 10 -11 7 -12 10 -2 10 10 0 9 4 -2 16 -9 8
-13 20 -10 26 5 7 2 8 -6 3 -10 -6 -12 -4 -7 8 4 10 2 16 -5 14 -7 -1 -13 4
-14 11 -1 6 -3 15 -4 20 -1 4 -1 11 0 17 1 5 -1 7 -5 3 -8 -8 -35 14 -29 23 6
10 -64 94 -78 94 -9 0 -12 12 -10 37 1 20 -3 42 -10 50 -7 7 -14 20 -16 28 -2
8 -8 17 -13 18 -5 2 -7 8 -3 13 3 5 0 9 -5 9 -6 0 -11 7 -11 15 0 8 -4 15 -10
15 -5 0 -7 7 -3 15 3 10 1 15 -7 13 -8 -2 -18 7 -25 19 -9 17 -15 19 -29 11
-11 -6 -16 -6 -13 -1 3 5 0 10 -8 10 -8 0 -12 -4 -9 -9 3 -4 -4 -8 -15 -8 -10
0 -21 -5 -23 -12 -3 -8 -10 -8 -26 4 -12 8 -19 18 -14 23 4 5 1 5 -6 1 -7 -4
-15 -1 -18 8 -3 9 -12 16 -18 16 -7 0 -13 11 -14 25 -1 14 -2 36 -3 50 -1 14
-5 25 -9 25 -5 0 -11 13 -15 30 -4 16 -15 36 -26 43 -10 8 -16 17 -12 20 3 4
-4 7 -17 7 -18 0 -20 3 -11 14 10 12 8 13 -11 9 -13 -3 -20 -2 -16 2 4 4 3 16
-3 26 -5 11 -6 19 -2 18 22 -4 34 2 27 14 -5 7 -2 7 10 -2 15 -12 17 -12 14 0
-2 9 5 14 20 13 12 -1 22 3 22 7 0 5 4 8 9 7 5 -2 8 -1 7 2 -3 11 29 38 38 32
5 -3 7 2 3 11 -3 8 1 21 9 28 12 10 12 14 2 21 -10 6 -10 10 2 18 13 9 13 10
0 10 -12 0 -13 2 -1 9 11 7 10 11 -5 20 -11 6 -15 11 -10 11 15 0 -41 40 -56
40 -23 0 -29 12 -15 28 10 13 9 14 -1 8 -9 -6 -12 -3 -10 10 4 23 20 43 31 37
4 -2 7 0 7 6 0 6 6 8 14 5 8 -3 17 0 21 6 5 8 10 8 20 0 8 -6 19 -10 27 -9 25
3 39 -1 34 -10 -6 -10 30 -22 38 -13 3 3 1 11 -5 19 -9 10 -8 13 0 13 7 0 9 5
6 10 -4 6 -1 9 7 8 7 -2 12 3 10 10 -1 8 2 11 8 7 5 -3 18 -1 27 4 10 6 14 11
9 11 -6 0 -1 7 10 16 10 8 12 13 4 9 -10 -4 -10 -2 2 7 16 11 16 14 0 40 -10
18 -25 28 -40 28 -13 0 -21 4 -18 9 4 5 -2 8 -11 7 -10 -2 -32 0 -50 5 -18 4
-33 4 -33 0 0 -3 -21 -5 -47 -4 -27 0 -54 -4 -61 -9 -9 -8 -11 -7 -6 7 5 11 3
16 -2 12 -5 -3 -10 3 -10 13 0 10 5 16 10 13 5 -4 7 1 3 9 -3 9 -3 19 1 22 10
11 11 36 1 36 -6 0 -7 5 -4 10 3 6 1 10 -5 10 -6 0 -8 5 -5 10 3 6 1 10 -5 10
-6 0 -8 5 -4 13 5 8 2 8 -9 -2 -11 -9 -17 -10 -17 -2 0 6 -6 11 -14 11 -8 0
-17 6 -19 13 -4 8 -6 8 -6 0z m-784 -719 c0 -7 -4 -11 -9 -8 -4 3 -8 1 -8 -4
0 -16 -38 -21 -44 -6 -3 8 -2 13 2 13 18 -3 26 2 14 9 -8 6 -3 9 16 9 17 0 29
-6 29 -13z m836 -53 c15 -18 31 -29 36 -27 4 3 8 -1 8 -9 0 -8 -4 -12 -9 -9
-4 3 -8 0 -8 -5 0 -6 7 -11 15 -11 9 0 12 -6 9 -15 -4 -9 0 -15 10 -15 14 0
14 -2 -1 -18 -19 -20 -38 -19 -27 1 4 7 4 9 -1 5 -4 -4 -14 -3 -22 3 -7 6 -13
8 -13 5 0 -4 -7 0 -16 9 -12 12 -19 13 -30 4 -8 -6 -14 -8 -14 -3 0 4 -7 -1
-16 -12 -15 -18 -15 -18 -9 11 3 17 6 36 7 43 1 6 4 12 8 12 3 0 6 12 7 28 1
52 2 53 21 43 9 -5 30 -23 45 -40z m167 -633 c0 6 5 12 11 12 5 0 7 -4 4 -10
-3 -5 2 -11 12 -12 10 0 23 -2 30 -2 6 -1 15 -5 19 -9 4 -4 15 -7 24 -7 9 0
17 -7 17 -15 0 -12 -3 -12 -16 -3 -9 7 -13 8 -9 4 4 -5 4 -14 -1 -20 -13 -17
-22 -48 -12 -42 5 3 12 -1 15 -10 4 -10 2 -13 -7 -7 -7 4 -5 -3 4 -17 11 -17
26 -25 47 -26 17 -1 38 -7 47 -14 20 -16 20 -54 1 -47 -9 4 -17 -1 -21 -12 -3
-10 -13 -18 -23 -17 -9 0 -16 -4 -15 -11 1 -6 -5 -10 -15 -8 -9 1 -22 -2 -29
-7 -7 -5 -16 -7 -22 -4 -5 3 -12 -1 -15 -10 -4 -9 -13 -14 -21 -10 -8 3 -15 1
-15 -4 0 -5 -9 -12 -20 -15 -11 -4 -18 -11 -15 -16 4 -5 -2 -9 -13 -9 -10 0
-27 -9 -37 -20 -10 -11 -21 -17 -26 -15 -4 3 -14 -1 -22 -9 -8 -8 -17 -12 -21
-9 -3 4 -6 1 -6 -6 0 -7 -4 -10 -9 -7 -4 3 -16 -3 -26 -14 -10 -11 -22 -17
-26 -14 -5 3 -9 -2 -9 -11 0 -9 -4 -13 -10 -10 -5 3 -10 -1 -10 -9 0 -9 -4
-16 -9 -16 -11 0 -20 -59 -10 -66 5 -2 5 -12 2 -21 -5 -12 -3 -14 7 -8 10 6
12 4 7 -8 -4 -11 -1 -17 8 -17 8 0 15 -7 15 -15 0 -9 6 -12 16 -8 9 3 20 0 24
-7 7 -11 11 -11 24 -1 13 11 16 11 16 0 0 -9 3 -10 8 -4 4 6 18 11 31 13 14 1
32 9 41 17 15 13 17 13 17 0 0 -8 -6 -15 -14 -15 -7 0 -13 -5 -13 -11 0 -6 -7
-9 -15 -5 -8 3 -15 1 -15 -5 0 -6 -4 -7 -10 -4 -5 3 -10 1 -10 -4 0 -6 -9 -11
-21 -11 -21 0 -67 -47 -61 -63 1 -5 -2 -6 -7 -3 -9 6 -27 -31 -23 -46 1 -4 -5
-5 -13 -2 -8 4 -15 10 -15 16 0 5 5 6 11 2 6 -3 3 5 -6 20 -10 14 -13 26 -9
26 5 0 4 4 -2 8 -7 4 -14 23 -17 43 -2 20 -8 42 -11 48 -4 6 -2 11 5 11 8 0 8
4 -1 15 -7 8 -9 15 -6 15 4 0 2 9 -4 20 -9 16 -8 22 5 26 8 3 12 10 9 15 -3 5
-8 7 -12 5 -4 -2 -5 29 -2 69 3 40 2 71 -2 68 -10 -5 -10 -5 1 35 7 22 6 32
-2 32 -6 0 -3 6 6 13 24 18 46 65 40 88 -3 10 -10 16 -16 12 -6 -4 -8 0 -4 10
4 12 1 17 -9 17 -11 0 -15 6 -11 19 4 15 1 18 -12 13 -14 -5 -14 -3 -3 11 8 9
11 25 7 38 -5 16 -4 19 5 14 9 -6 11 -4 4 6 -13 22 -12 33 7 51 15 14 19 15
30 2 6 -8 17 -14 23 -14 6 0 26 -13 43 -29 18 -16 34 -26 37 -23 3 3 6 0 6 -6
0 -7 6 -12 14 -12 8 0 16 -7 20 -15 8 -22 33 -18 47 6 7 15 8 19 0 15 -7 -5
-9 -1 -5 8 3 9 11 16 16 16 6 0 5 7 -2 16 -8 8 -9 14 -4 12 5 -2 9 0 9 3 0 4
9 16 19 28 15 16 21 18 28 9 6 -10 8 -10 8 0z m431 -363 c7 19 8 19 8 -2 1
-14 7 -23 16 -23 12 0 14 -7 9 -26 -5 -19 -4 -25 5 -20 6 4 11 2 11 -3 0 -6 7
-11 16 -11 14 0 14 -3 3 -16 -10 -12 -10 -17 0 -23 15 -10 13 -22 -7 -37 -11
-8 -12 -13 -3 -18 6 -4 9 -12 5 -17 -3 -5 -10 -6 -16 -3 -7 4 -8 2 -4 -4 4 -7
1 -12 -6 -12 -10 0 -9 -3 2 -10 17 -11 13 -15 -22 -24 -17 -4 -28 -2 -28 4 0
6 -9 21 -21 33 -12 13 -19 31 -16 43 3 15 -4 26 -23 38 -15 8 -30 13 -34 9 -3
-3 -6 -1 -6 7 0 9 -3 10 -13 1 -8 -6 -17 -8 -21 -4 -4 4 -4 0 -1 -9 4 -10 -2
-22 -17 -32 -15 -11 -24 -13 -27 -5 -2 8 -6 7 -11 -1 -12 -20 -62 34 -53 57 6
16 5 16 -10 4 -15 -12 -17 -12 -12 1 4 10 -2 14 -24 13 -16 0 -28 -2 -25 -4 7
-8 -31 -30 -52 -31 -23 0 -37 20 -26 37 4 5 23 18 42 29 19 10 38 24 42 29 4
6 8 6 8 1 0 -5 7 -3 15 4 17 14 68 5 102 -17 13 -9 23 -11 23 -5 0 6 10 8 22
4 16 -4 19 -2 13 9 -7 12 -6 12 7 1 11 -9 18 -10 23 -2 3 5 14 10 23 10 10 0
24 9 32 19 7 11 17 18 22 15 4 -3 9 1 9 8 1 7 4 2 7 -12 4 -23 5 -24 13 -5z"/>
<path d="M946 1885 c-3 -8 -1 -15 4 -15 6 0 10 7 10 15 0 8 -2 15 -4 15 -2 0
-6 -7 -10 -15z"/>
<path d="M880 1875 c0 -2 6 -8 13 -14 10 -8 14 -7 14 2 0 8 -6 14 -14 14 -7 0
-13 -1 -13 -2z"/>
<path d="M855 1860 c-3 -5 -1 -10 4 -10 6 0 11 5 11 10 0 6 -2 10 -4 10 -3 0
-8 -4 -11 -10z"/>
</g>
</svg>
